<?xml version="1.0" encoding="UTF-8"?>
<svg version="1.1" xmlns="http://www.w3.org/2000/svg" width="225" height="225">
<path d="M0 0 C74.25 0 148.5 0 225 0 C225 74.25 225 148.5 225 225 C150.75 225 76.5 225 0 225 C0 150.75 0 76.5 0 0 Z " fill="#FDFDFD" transform="translate(0,0)"/>
<path d="M0 0 C38.94 0 77.88 0 118 0 C118 74.25 118 148.5 118 225 C73.45 225 28.9 225 -17 225 C-18 222 -18 222 -16.5 218.8125 C-10.39413948 208.92682107 -1.07062954 199.66565897 9.9921875 195.66015625 C14.62368222 194.64363338 19.24460363 194.5824755 23.97143555 194.41870117 C37.53875013 193.853221 51.78605841 190.35800984 62.13671875 181.0859375 C65.44821966 177.2109411 67.06108197 173.45431439 66.73046875 168.31640625 C65.24614019 163.60941783 61.68409163 160.15578021 58 157 C57.01 156.67 56.02 156.34 55 156 C54.67 156.99 54.34 157.98 54 159 C53.67 159 53.34 159 53 159 C53.0314209 157.89881836 53.0314209 157.89881836 53.06347656 156.77539062 C53.68580856 131.61427179 51.34616554 112.37856383 34 93 C31.15327713 90.07433614 28.23605275 87.22364635 25.3125 84.375 C19.16048829 78.37065253 14.05664268 72.6470046 10 65 C9.42765625 64.030625 8.8553125 63.06125 8.265625 62.0625 C3.51629493 53.87099492 3.51629493 53.87099492 4 49 C4.33 48.67 4.66 48.34 5 48 C5.12742707 45.07214072 5.18521936 42.17833861 5.1875 39.25 C5.20586914 38.03183594 5.20586914 38.03183594 5.22460938 36.7890625 C5.23568866 32.25394343 4.71152551 29.21651688 3 25 C2.6560183 21.86065569 2.58259864 18.71825401 2.5 15.5625 C2.45620224 13.89689692 2.4042983 12.23148456 2.34375 10.56640625 C2.32505859 9.83365479 2.30636719 9.10090332 2.28710938 8.34594727 C1.99651482 5.32740844 1.99651482 5.32740844 0 0 Z " fill="#FDFDFD" transform="translate(107,0)"/>
<path d="M0 0 C2.5 0.875 2.5 0.875 3.625 2.8359375 C5.05163978 7.79096315 4.93289832 12.79750608 5.06640625 17.92578125 C5.20628314 22.77191058 5.20628314 22.77191058 6.51953125 27.390625 C8.03772453 31.23752113 7.74922627 35.03157348 7.6875 39.125 C7.68685547 39.95257813 7.68621094 40.78015625 7.68554688 41.6328125 C7.64053468 47.73446532 7.64053468 47.73446532 6.5 48.875 C6.81940861 63.56779611 19.99224968 76.5567239 29.875 86.1875 C40.71298261 96.7967837 49.07011303 107.07646929 53.5 121.875 C53.74363281 122.64457031 53.98726563 123.41414063 54.23828125 124.20703125 C57.96310344 138.67555825 56.98820276 157.4476399 49.94140625 170.63671875 C47.83463212 173.90821354 45.41077736 176.30268512 42.5 178.875 C41.84 178.545 41.18 178.215 40.5 177.875 C41.428125 176.76125 41.428125 176.76125 42.375 175.625 C45.14425321 172.04126055 46.67603702 168.60255036 48.0625 164.3125 C48.31128906 163.54808594 48.56007813 162.78367188 48.81640625 161.99609375 C49.04199219 161.29613281 49.26757812 160.59617188 49.5 159.875 C49.83 158.885 50.16 157.895 50.5 156.875 C50.73586533 152.87916377 50.68519201 148.87705151 50.6875 144.875 C50.69974609 143.78832031 50.71199219 142.70164063 50.72460938 141.58203125 C50.7428373 131.41084725 49.77709148 122.06054065 45.0625 112.9375 C44.71541992 112.2578418 44.36833984 111.57818359 44.01074219 110.87792969 C39.55503972 102.58634688 33.1891052 96.43422108 26.48046875 89.9609375 C16.90579831 80.67654821 1.34067306 65.3981721 1.0625 51.3125 C1.5 47.875 1.5 47.875 2.5 45.875 C3.19309916 37.22824322 3.19309916 37.22824322 1 29 C-1.29335674 24.00605495 -0.67072291 18.630808 -0.5078125 13.265625 C-0.50144682 10.50292106 -0.64854397 8.46866607 -1.5 5.875 C-2.05429688 6.3803125 -2.60859375 6.885625 -3.1796875 7.40625 C-3.90414062 8.0559375 -4.62859375 8.705625 -5.375 9.375 C-6.09429687 10.0246875 -6.81359375 10.674375 -7.5546875 11.34375 C-9.5 12.875 -9.5 12.875 -11.5 12.875 C-11.5 13.535 -11.5 14.195 -11.5 14.875 C-15.33253129 15.08005665 -19.16363766 15.20320828 -23 15.3125 C-24.07765625 15.37115234 -25.1553125 15.42980469 -26.265625 15.49023438 C-32.18435692 15.61654878 -35.72310867 15.33602991 -40.28125 11.34765625 C-41.38317102 10.21767967 -42.46775654 9.06896417 -43.5 7.875 C-43.45359375 9.0815625 -43.4071875 10.288125 -43.359375 11.53125 C-43.32182713 13.14580836 -43.28543023 14.76039378 -43.25 16.375 C-43.19972656 17.56222656 -43.19972656 17.56222656 -43.1484375 18.7734375 C-43.06132577 24.08725298 -43.99110641 27.45309071 -46.57861328 32.07470703 C-48.78710186 36.38986199 -48.18431619 41.22051878 -47.5 45.875 C-46.34950173 49.24687556 -45.00358978 52.49141931 -43.62890625 55.77734375 C-40.848659 63.40618828 -42.33796785 68.881211 -45.54296875 76.02734375 C-48.05618043 83.50543074 -47.54786519 92.07297341 -47.5 99.875 C-48.16 99.545 -48.82 99.215 -49.5 98.875 C-52.5604978 88.84336831 -53.1545362 78.3780114 -48.5 68.875 C-47.49650563 62.60316017 -49.95599953 57.5671493 -52.30859375 51.86328125 C-55.81258689 43.07457715 -54.97718522 36.06026651 -51.47265625 27.35546875 C-49.99490358 23.58690271 -49.37636715 20.41375695 -49.4375 16.36328125 C-49.44523437 15.52345703 -49.45296875 14.68363281 -49.4609375 13.81835938 C-49.48027344 12.51608398 -49.48027344 12.51608398 -49.5 11.1875 C-49.52539212 9.45448788 -49.54646493 7.7214052 -49.5625 5.98828125 C-49.57410156 5.22298096 -49.58570313 4.45768066 -49.59765625 3.66918945 C-49.5 1.875 -49.5 1.875 -48.5 0.875 C-43.33005516 0.875 -41.16597234 1.90059017 -37.4375 5.5 C-36.82777344 6.15226563 -36.21804687 6.80453125 -35.58984375 7.4765625 C-33.52349831 9.18416615 -33.52349831 9.18416615 -30.6796875 8.5625 C-29.10574219 8.2221875 -29.10574219 8.2221875 -27.5 7.875 C-25.22798229 7.97621533 -22.95696785 8.10226809 -20.6875 8.25 C-14.128435 8.34023052 -10.92689603 6.92822093 -6.171875 2.50390625 C-5.62015625 1.96636719 -5.0684375 1.42882812 -4.5 0.875 C-2.5 -0.125 -2.5 -0.125 0 0 Z " fill="#1E1D1B" transform="translate(105.5,0.125)"/>
<path d="M0 0 C4.91592395 0.70860165 7.25141066 3.82001896 10.3359375 7.46484375 C12.48368771 10.73688574 13.04509433 12.93526429 12.640625 16.8046875 C10.51837621 24.07727176 5.11081041 28.15123389 -1.2890625 31.6875 C-5.7489032 33.84673123 -10.26720345 35.54212963 -15 37 C-15.680625 37.21527344 -16.36125 37.43054688 -17.0625 37.65234375 C-21.54959837 38.85299312 -25.92142999 39.11571088 -30.5402832 39.28417969 C-44.89690817 39.82809093 -53.58606275 43.6213045 -64 54 C-67.20817819 57.49972958 -70.14533122 61.20819248 -73 65 C-73.66 63.68 -74.32 62.36 -75 61 C-74.34 61 -73.68 61 -73 61 C-72.76539062 60.46117187 -72.53078125 59.92234375 -72.2890625 59.3671875 C-66.30755069 48.38295672 -56.85136036 39.71655988 -45.02734375 35.7265625 C-41.77729619 34.94655109 -38.77466717 34.70910388 -35.4375 34.5625 C-22.46763442 33.948964 -5.62941984 30.26471435 3.625 20.5625 C5.47764847 18.13616209 6.00897887 16.95510563 6.625 13.875 C5.86449621 10.37668259 4.31657256 8.67853702 2 6 C2 5.01 2 4.02 2 3 C1.01 2.505 1.01 2.505 0 2 C0 1.34 0 0.68 0 0 Z " fill="#131313" transform="translate(162,156)"/>
<path d="M0 0 C3.44620861 1.1487362 4.09169196 2.07581642 6.1875 4.9375 C6.71730469 5.64777344 7.24710937 6.35804687 7.79296875 7.08984375 C9 9 9 9 9 11 C9.58700684 10.77497803 10.17401367 10.54995605 10.77880859 10.31811523 C13 10 13 10 14.76416016 11.13305664 C15.64273682 12.01272095 15.64273682 12.01272095 16.5390625 12.91015625 C17.19737061 13.56330811 17.85567871 14.21645996 18.53393555 14.8894043 C19.56901245 15.96508667 19.56901245 15.96508667 20.625 17.0625 C21.3363208 17.79186768 22.0476416 18.52123535 22.78051758 19.27270508 C32.43287634 29.36286218 39.93737496 39.42834868 44 53 C44.24363281 53.76957031 44.48726562 54.53914063 44.73828125 55.33203125 C48.46310344 69.80055825 47.48820276 88.5726399 40.44140625 101.76171875 C38.33463212 105.03321354 35.91077736 107.42768512 33 110 C32.01 109.505 32.01 109.505 31 109 C31.61875 108.2575 32.2375 107.515 32.875 106.75 C35.64425321 103.16626055 37.17603702 99.72755036 38.5625 95.4375 C38.81128906 94.67308594 39.06007812 93.90867187 39.31640625 93.12109375 C39.54199219 92.42113281 39.76757812 91.72117187 40 91 C40.495 89.515 40.495 89.515 41 88 C41.23586533 84.00416377 41.18519201 80.00205151 41.1875 76 C41.20586914 74.36998047 41.20586914 74.36998047 41.22460938 72.70703125 C41.2428373 62.53584725 40.27709148 53.18554065 35.5625 44.0625 C35.21541992 43.3828418 34.86833984 42.70318359 34.51074219 42.00292969 C30.72825495 34.96412798 25.69716219 29.5284407 20 24 C17.93403228 21.98267422 15.87099751 19.96244921 13.8125 17.9375 C13.31234375 17.44757568 12.8121875 16.95765137 12.296875 16.45288086 C7.57721019 11.7464473 3.59088567 6.62924136 0 1 C0 0.67 0 0.34 0 0 Z " fill="#4E4E4C" transform="translate(115,69)"/>
<path d="M0 0 C0.66 0.33 1.32 0.66 2 1 C2.66950933 3.79367984 3.23315905 6.55240204 3.75 9.375 C5.15148882 16.50724824 6.87362969 23.44267099 9.0625 30.375 C9.30774414 31.16438965 9.55298828 31.9537793 9.80566406 32.76708984 C10.85677674 36.01822216 11.87715159 38.79670475 13.65234375 41.734375 C15.97371955 45.63697779 15.7756764 49.60911749 15 54 C13.85251561 55.88856806 12.54363856 57.44874006 11.11328125 59.12890625 C8.96339361 62.74222618 9.6325002 66.94116883 10 71 C8.68 71 7.36 71 6 71 C5 70 5 70 4.8125 66.5625 C5 63 5 63 7 61 C7.48017861 46.91476068 3.86757758 31.62739747 -0.37402344 18.27661133 C-1.97237631 13.03056264 -2.1995987 8.48626692 -2 3 C-1.34 3 -0.68 3 0 3 C0 2.01 0 1.02 0 0 Z " fill="#1C1B1A" transform="translate(61,114)"/>
<path d="M0 0 C0.66 0.33 1.32 0.66 2 1 C2.59236934 16.53324052 0.00458136 28.88950964 -5.66943359 43.2409668 C-8.62615984 50.76537103 -10.77219732 57.98400089 -12 66 C-12.66 66 -13.32 66 -14 66 C-14.495 66.99 -14.495 66.99 -15 68 C-14.84570481 59.27530844 -13.55889257 51.70008589 -11.0859375 43.39477539 C-9.16312031 36.8455227 -7.68408535 30.24768563 -6.3125 23.5625 C-6.11043945 22.58039551 -5.90837891 21.59829102 -5.70019531 20.58642578 C-4.90953671 16.68641345 -4.13113923 12.79313894 -3.48193359 8.86669922 C-3.3164502 7.86783691 -3.1509668 6.86897461 -2.98046875 5.83984375 C-2.83891357 4.93484131 -2.6973584 4.02983887 -2.55151367 3.09741211 C-2.36951416 2.40526611 -2.18751465 1.71312012 -2 1 C-1.34 0.67 -0.68 0.34 0 0 Z " fill="#1F1E1C" transform="translate(103,116)"/>
<path d="M0 0 C2.7355137 1.62696883 3.84833681 2.43384821 4.6875 5.56640625 C4.790625 6.55511719 4.89375 7.54382812 5 8.5625 C5.55942709 12.78871736 6.36561939 16.24328963 8.125 20.125 C10.56216694 25.86058836 11.36123195 31.36801341 9.12890625 37.32421875 C8.77699219 38.10410156 8.42507812 38.88398437 8.0625 39.6875 C4.39913628 47.85563606 4.94601714 57.20079431 5 66 C4.34 65.67 3.68 65.34 3 65 C-0.0604978 54.96836831 -0.6545362 44.5030114 4 35 C5.00349437 28.72816017 2.54400047 23.6921493 0.19140625 17.98828125 C-1.40766991 13.97748368 -2.15142515 10.68955177 -2.1875 6.375 C-2.20167969 5.59898438 -2.21585938 4.82296875 -2.23046875 4.0234375 C-2 2 -2 2 0 0 Z " fill="#21201E" transform="translate(53,34)"/>
<path d="M0 0 C0.04898438 1.09699219 0.09796875 2.19398437 0.1484375 3.32421875 C0.22350591 4.77866925 0.29905197 6.23309516 0.375 7.6875 C0.4059375 8.40873047 0.436875 9.12996094 0.46875 9.87304688 C0.6409264 13.01526624 0.79763563 15.51909608 2.02734375 18.44140625 C3.50687721 22.33335169 3.24969136 26.1257308 3.1875 30.25 C3.18685547 31.07757813 3.18621094 31.90515625 3.18554688 32.7578125 C3.14053468 38.85946532 3.14053468 38.85946532 2 40 C2.24145442 51.10690316 10.56614622 60.55760811 17 69 C16.67 69.66 16.34 70.32 16 71 C15.34 71 14.68 71 14 71 C12.44921875 68.98828125 12.44921875 68.98828125 10.6875 66.3125 C8.69693774 63.36992971 6.92510824 60.92689138 4.375 58.4375 C0.04633346 53.99492118 -3.29418233 48.91245957 -3.375 42.5625 C-3 39 -3 39 -2 37 C-1.2985079 28.33861528 -1.2985079 28.33861528 -3.5625 20.125 C-6.25539959 14.31135697 -4.6693979 7.1939468 -4 1 C-1 0 -1 0 0 0 Z " fill="#1C1C1C" transform="translate(110,9)"/>
<path d="M0 0 C6.1875 0.45833333 6.1875 0.45833333 8.875 2.25 C10.33094125 4.5147975 10.79396437 6.32153683 11 9 C10.34 9.66 9.68 10.32 9 11 C7.68 9.68 6.36 8.36 5 7 C5.04640625 8.2065625 5.0928125 9.413125 5.140625 10.65625 C5.17817287 12.27080836 5.21456977 13.88539378 5.25 15.5 C5.30027344 16.68722656 5.30027344 16.68722656 5.3515625 17.8984375 C5.43815352 23.18048998 4.55064008 26.63772166 1.96191406 31.23632812 C0.76399285 33.43271971 0.20958476 35.5488813 -0.25 38 C-0.39953125 38.763125 -0.5490625 39.52625 -0.703125 40.3125 C-0.80109375 40.869375 -0.8990625 41.42625 -1 42 C-1.33 42 -1.66 42 -2 42 C-2.33 39.69 -2.66 37.38 -3 35 C-3.99 35.495 -3.99 35.495 -5 36 C-4.36349917 28.48929023 -4.36349917 28.48929023 -2.46484375 25.93359375 C-0.17275016 21.34329433 -0.72576695 16.79797009 -0.875 11.75 C-0.91814825 9.74487542 -0.95742918 7.73966256 -0.9921875 5.734375 C-1.01651855 4.84975586 -1.04084961 3.96513672 -1.06591797 3.05371094 C-1 1 -1 1 0 0 Z " fill="#1B1B19" transform="translate(57,1)"/>
<path d="M0 0 C2.8125 -0.25 2.8125 -0.25 6 0 C8.19824599 2.02592586 8.88188156 3.41236078 9.46875 6.33203125 C9.54118164 12.0812928 8.81236455 14.78378586 5.11328125 19.12890625 C2.96339361 22.74222618 3.6325002 26.94116883 4 31 C2.68 31 1.36 31 0 31 C-1 30 -1 30 -1.1875 26.5625 C-1 23 -1 23 1 21 C1.18444591 18.76542312 1.18444591 18.76542312 0.9765625 16.2109375 C0.925 15.26992187 0.8734375 14.32890625 0.8203125 13.359375 C0.75585938 12.37453125 0.69140625 11.3896875 0.625 10.375 C0.56828125 9.38242188 0.5115625 8.38984375 0.453125 7.3671875 C0.31140759 4.91075233 0.15997723 2.45530265 0 0 Z " fill="#171615" transform="translate(67,154)"/>
<path d="M0 0 C-0.66 11.88 -1.32 23.76 -2 36 C-2.33 35.34 -2.66 34.68 -3 34 C-3.66 34 -4.32 34 -5 34 C-7.20161035 27.75623305 -7.36668037 21.89748434 -7.375 15.3125 C-7.39949219 14.28060547 -7.42398438 13.24871094 -7.44921875 12.18554688 C-7.45308594 11.19232422 -7.45695312 10.19910156 -7.4609375 9.17578125 C-7.46915527 8.27770752 -7.47737305 7.37963379 -7.48583984 6.4543457 C-6.62613262 2.11131218 -4.40069709 0 0 0 Z " fill="#11100F" transform="translate(87,136)"/>
<path d="M0 0 C0.66 0.66 1.32 1.32 2 2 C2.66 1.34 3.32 0.68 4 0 C7.74499354 13.20740615 5.84611901 30.77439068 -0.55859375 42.76171875 C-2.66536788 46.03321354 -5.08922264 48.42768512 -8 51 C-8.66 50.67 -9.32 50.34 -10 50 C-9.071875 48.88625 -9.071875 48.88625 -8.125 47.75 C-5.35574679 44.16626055 -3.82396298 40.72755036 -2.4375 36.4375 C-2.18871094 35.67308594 -1.93992188 34.90867188 -1.68359375 34.12109375 C-1.45800781 33.42113281 -1.23242188 32.72117188 -1 32 C-0.67 31.01 -0.34 30.02 0 29 C0.08358958 26.78910055 0.10731764 24.57573922 0.09765625 22.36328125 C0.09443359 21.06455078 0.09121094 19.76582031 0.08789062 18.42773438 C0.07953531 17.05598892 0.07107037 15.68424413 0.0625 14.3125 C0.05748335 12.92903805 0.05292073 11.54557437 0.04882812 10.16210938 C0.03702529 6.77469605 0.02056019 3.38736967 0 0 Z " fill="#939393" transform="translate(156,128)"/>
<path d="M0 0 C4.91592395 0.70860165 7.25141066 3.82001896 10.3359375 7.46484375 C12.47798993 10.72820532 13.02456176 12.92594923 12.671875 16.78515625 C11.43609268 20.85892703 8.9597043 23.99428993 6 27 C5.34 27.33 4.68 27.66 4 28 C3.3125 24.75 3.3125 24.75 3 21 C3.95298777 19.63266972 4.95374591 18.29735507 6 17 C6.58345476 14.04253508 6.58345476 14.04253508 6 11 C4.06102121 8.32601524 4.06102121 8.32601524 2 6 C2 5.01 2 4.02 2 3 C1.34 2.67 0.68 2.34 0 2 C0 1.34 0 0.68 0 0 Z " fill="#1C1C1B" transform="translate(162,156)"/>
<path d="M0 0 C0.20625 1.258125 0.4125 2.51625 0.625 3.8125 C2.96288751 14.18687584 9.66790929 22.69113985 16 31 C15.67 31.66 15.34 32.32 15 33 C14.34 33 13.68 33 13 33 C11.44921875 30.98828125 11.44921875 30.98828125 9.6875 28.3125 C7.69693774 25.36992971 5.92510824 22.92689138 3.375 20.4375 C-1.01370135 15.93330651 -4.3125 10.87190722 -4.3125 4.4375 C-4.209375 3.303125 -4.10625 2.16875 -4 1 C-1 0 -1 0 0 0 Z " fill="#191918" transform="translate(111,47)"/>
<path d="M0 0 C0.33 0.99 0.66 1.98 1 3 C1.99 3.33 2.98 3.66 4 4 C3.34 5.32 2.68 6.64 2 8 C2.66 8.33 3.32 8.66 4 9 C3.67386719 9.77601563 3.34773438 10.55203125 3.01171875 11.3515625 C-0.29399857 19.5232177 -2.39937011 27.3201615 -4 36 C-4.66 36 -5.32 36 -6 36 C-6.33 36.66 -6.66 37.32 -7 38 C-6.82453659 28.07834147 -5.00224455 19.47434631 -2.15625 10.03125 C-1.16274183 6.71330762 -0.47844095 3.43607592 0 0 Z " fill="#171715" transform="translate(95,146)"/>
<path d="M0 0 C0.99 0 1.98 0 3 0 C3.66 0.99 4.32 1.98 5 3 C4.27152951 4.52631913 3.5414142 6.05186757 2.8046875 7.57421875 C0.394588 14.83961579 0.94149081 23.40550707 1 31 C0.34 30.67 -0.32 30.34 -1 30 C-3.56523008 21.59174586 -5.05760484 10.92045772 -1.5 2.625 C-1.005 1.75875 -0.51 0.8925 0 0 Z " fill="#111111" transform="translate(57,69)"/>
<path d="M0 0 C-0.81984375 0.31453125 -1.6396875 0.6290625 -2.484375 0.953125 C-3.56203125 1.38109375 -4.6396875 1.8090625 -5.75 2.25 C-6.81734375 2.66765625 -7.8846875 3.0853125 -8.984375 3.515625 C-12.0231309 5.01138567 -13.83643011 6.41817436 -16 9 C-16.144375 9.66 -16.28875 10.32 -16.4375 11 C-17 13 -17 13 -19.234375 14.765625 C-22.2220998 17.17943656 -24.42037815 19.75092186 -26.8125 22.75 C-27.60269531 23.73484375 -28.39289063 24.7196875 -29.20703125 25.734375 C-29.79871094 26.48203125 -30.39039062 27.2296875 -31 28 C-31.66 26.68 -32.32 25.36 -33 24 C-32.34 24 -31.68 24 -31 24 C-30.76539062 23.46117187 -30.53078125 22.92234375 -30.2890625 22.3671875 C-25.366939 13.3283789 -11.92739761 -3.75972316 0 0 Z " fill="#696969" transform="translate(120,193)"/>
<path d="M0 0 C4.29 0.33 8.58 0.66 13 1 C13 1.66 13 2.32 13 3 C14.65 3 16.3 3 18 3 C18 3.33 18 3.66 18 4 C16.22496094 4.03867188 16.22496094 4.03867188 14.4140625 4.078125 C3.05954629 4.43967259 -6.10355581 5.21561133 -15 13 C-15.66 13 -16.32 13 -17 13 C-15.47887873 9.12805496 -13.4821972 7.24891903 -10 5 C-6.71091502 3.81633236 -3.3850164 2.86761585 0 2 C0 1.34 0 0.68 0 0 Z " fill="#1A1A1A" transform="translate(120,191)"/>
<path d="M0 0 C0.66 0 1.32 0 2 0 C2.33 0.66 2.66 1.32 3 2 C3.66 1.34 4.32 0.68 5 0 C10.04589423 10.41604548 10.6410626 18.97399051 10.3125 30.3125 C10.28734497 31.84306186 10.26454471 33.3736643 10.24414062 34.90429688 C10.18980905 38.60372733 10.10395078 42.30159118 10 46 C9.67 46 9.34 46 9 46 C9.00112793 45.32646484 9.00225586 44.65292969 9.00341797 43.95898438 C8.94753897 29.70255182 8.14393494 17.97234009 2 5 C1.32223728 3.33781471 0.65091443 1.67288153 0 0 Z " fill="#575757" transform="translate(149,109)"/>
<path d="M0 0 C0.66 0 1.32 0 2 0 C2.78584559 8.67922794 2.78584559 8.67922794 0.88671875 11.87109375 C-0.03776042 12.95703125 -0.96223958 14.04296875 -1.88671875 15.12890625 C-4.03660639 18.74222618 -3.3674998 22.94116883 -3 27 C-4.32 27 -5.64 27 -7 27 C-8 26 -8 26 -8.25 22.75 C-7.98977142 18.84657127 -7.396006 17.04108454 -5 14 C-4.34 14 -3.68 14 -3 14 C-3 13.34 -3 12.68 -3 12 C-2.34 11.67 -1.68 11.34 -1 11 C-0.5316735 8.41394668 -0.5316735 8.41394668 -0.375 5.4375 C-0.30023438 4.42558594 -0.22546875 3.41367188 -0.1484375 2.37109375 C-0.09945312 1.58863281 -0.05046875 0.80617187 0 0 Z " fill="#2A2927" transform="translate(74,158)"/>
<path d="M0 0 C6.1875 0.45833333 6.1875 0.45833333 8.875 2.25 C10.33094125 4.5147975 10.79396437 6.32153683 11 9 C10.34 9.66 9.68 10.32 9 11 C7.29115995 9.37660195 5.62553283 7.70680947 4 6 C4 5.34 4 4.68 4 4 C3.34 3.67 2.68 3.34 2 3 C0.18884044 4.81115956 0.61800552 7.61278227 0.4375 10.0625 C0.35371094 11.16722656 0.26992188 12.27195312 0.18359375 13.41015625 C0.12300781 14.26480469 0.06242187 15.11945312 0 16 C-0.33 16 -0.66 16 -1 16 C-1.02685095 13.52076199 -1.04676547 11.0418116 -1.0625 8.5625 C-1.07506836 7.50192383 -1.07506836 7.50192383 -1.08789062 6.41992188 C-1.09653588 4.61306441 -1.05220011 2.80612397 -1 1 C-0.67 0.67 -0.34 0.34 0 0 Z " fill="#151513" transform="translate(57,1)"/>
<path d="M0 0 C1.32 0.33 2.64 0.66 4 1 C1.95289799 9.76303317 -1.57495169 15.7470512 -8 22 C-8.66 21.67 -9.32 21.34 -10 21 C-9.071875 19.88625 -9.071875 19.88625 -8.125 18.75 C-5.35574679 15.16626055 -3.82396298 11.72755036 -2.4375 7.4375 C-2.18871094 6.67308594 -1.93992188 5.90867188 -1.68359375 5.12109375 C-1.45800781 4.42113281 -1.23242188 3.72117188 -1 3 C-0.67 2.01 -0.34 1.02 0 0 Z " fill="#AEAEAE" transform="translate(156,157)"/>
<path d="M0 0 C0.86625 0.4640625 0.86625 0.4640625 1.75 0.9375 C5.91916401 2.90627189 9.39503898 3.1046582 14 3 C11 5 11 5 9 6 C9.66 6.66 10.32 7.32 11 8 C10 9 10 9 6.625 9.1875 C3 9 3 9 0 7 C-0.1875 3.375 -0.1875 3.375 0 0 Z " fill="#20201E" transform="translate(67,6)"/>
<path d="M0 0 C2 1 2 1 2.66796875 2.92578125 C2.83941406 3.71339844 3.01085937 4.50101562 3.1875 5.3125 C3.36667969 6.09238281 3.54585938 6.87226562 3.73046875 7.67578125 C4.01067443 10.09204759 3.74132137 11.70242952 3 14 C2.01 13.01 1.02 12.02 0 11 C-0.33 11.99 -0.66 12.98 -1 14 C-2.20272819 11.59454362 -2.10071472 10.05003047 -2.0625 7.375 C-2.05347656 6.55773437 -2.04445312 5.74046875 -2.03515625 4.8984375 C-2.02355469 4.27195312 -2.01195312 3.64546875 -2 3 C-1.34 3 -0.68 3 0 3 C0 2.01 0 1.02 0 0 Z " fill="#3F3F3F" transform="translate(61,114)"/>
<path d="M0 0 C3.39169482 1.20986308 4.92949789 2.85992109 6.8125 5.875 C7.25207031 6.55304688 7.69164062 7.23109375 8.14453125 7.9296875 C9.16843185 10.40762047 8.90457722 11.52489914 8 14 C7.67 13.01 7.34 12.02 7 11 C6.06414062 10.53980469 6.06414062 10.53980469 5.109375 10.0703125 C2.49623776 8.74438731 1.70802544 7.38604381 0.25 4.875 C-0.39195312 3.78832031 -0.39195312 3.78832031 -1.046875 2.6796875 C-1.36140625 2.12539062 -1.6759375 1.57109375 -2 1 C-1.34 0.67 -0.68 0.34 0 0 Z " fill="#282828" transform="translate(144,98)"/>
<path d="M0 0 C0.33 0 0.66 0 1 0 C1.33 4.29 1.66 8.58 2 13 C2.66 13 3.32 13 4 13 C4 10.69 4 8.38 4 6 C4.33 6 4.66 6 5 6 C5 11.28 5 16.56 5 22 C4.67 21.34 4.34 20.68 4 20 C3.34 20 2.68 20 2 20 C-0.46254726 13.38190423 -0.18935472 6.99560484 0 0 Z " fill="#727270" transform="translate(80,150)"/>
<path d="M0 0 C0.66 1.32 1.32 2.64 2 4 C2.66 2.68 3.32 1.36 4 0 C4 4.62 4 9.24 4 14 C3.01 14 2.02 14 1 14 C0.34 14.66 -0.32 15.32 -1 16 C-0.67 10.72 -0.34 5.44 0 0 Z " fill="#141414" transform="translate(109,34)"/>
<path d="M0 0 C-0.33 0.33 -0.66 0.66 -1 1 C-0.01 1.66 0.98 2.32 2 3 C-1.9813783 4.3271261 -5.85045227 4.06915913 -10 4 C-10 3.34 -10 2.68 -10 2 C-12.97 2 -15.94 2 -19 2 C-19 1.67 -19 1.34 -19 1 C-16.58440932 0.63645961 -14.16805703 0.28389449 -11.75 -0.0625 C-11.06808594 -0.16626953 -10.38617188 -0.27003906 -9.68359375 -0.37695312 C-6.2150075 -0.86524925 -3.33088887 -1.22762141 0 0 Z " fill="#0C0C0C" transform="translate(143,190)"/>
<path d="M0 0 C0.66 0.33 1.32 0.66 2 1 C2 4.63 2 8.26 2 12 C1.01 12.33 0.02 12.66 -1 13 C-3.21980248 8.69097166 -3.08209933 5.68909708 -2 1 C-1.34 0.67 -0.68 0.34 0 0 Z " fill="#1A1A1A" transform="translate(103,116)"/>
<path d="M0 0 C0 4.29 0 8.58 0 13 C-1.32 13 -2.64 13 -4 13 C-4 9.04 -4 5.08 -4 1 C-1 0 -1 0 0 0 Z " fill="#0C0C0B" transform="translate(110,9)"/>
<path d="M0 0 C0.99 0 1.98 0 3 0 C3.66 0.99 4.32 1.98 5 3 C4.125 5.6875 4.125 5.6875 3 8 C2.01 8 1.02 8 0 8 C-0.33 11.63 -0.66 15.26 -1 19 C-1.33 19 -1.66 19 -2 19 C-2.98262143 11.79016324 -3.6644984 6.44951718 0 0 Z " fill="#333333" transform="translate(57,69)"/>
<path d="M0 0 C0.33 0 0.66 0 1 0 C0.67 3.3 0.34 6.6 0 10 C0.66 10.33 1.32 10.66 2 11 C1.34 13.97 0.68 16.94 0 20 C-0.66 20 -1.32 20 -2 20 C-2.33 20.66 -2.66 21.32 -3 22 C-2.59722507 14.45326965 -2.17808026 7.26026753 0 0 Z " fill="#6E6E6D" transform="translate(91,162)"/>
<path d="M0 0 C0.99 0 1.98 0 3 0 C4.51708428 9.41002278 4.51708428 9.41002278 2 14 C1.34 14 0.68 14 0 14 C0.33 12.68 0.66 11.36 1 10 C0.34 9.67 -0.32 9.34 -1 9 C-0.67 6.03 -0.34 3.06 0 0 Z " fill="#111110" transform="translate(97,140)"/>
<path d="M0 0 C3 1 3 1 4.1875 3.25 C4.99938294 5.99791147 5.16260121 8.15447889 5 11 C3.68 11 2.36 11 1 11 C-1.125 3.375 -1.125 3.375 0 0 Z " fill="#151515" transform="translate(61,125)"/>
<path d="M0 0 C-0.81984375 0.31453125 -1.6396875 0.6290625 -2.484375 0.953125 C-3.56203125 1.38109375 -4.6396875 1.8090625 -5.75 2.25 C-6.81734375 2.66765625 -7.8846875 3.0853125 -8.984375 3.515625 C-12.02777926 5.01367373 -13.82883463 6.41918079 -16 9 C-16.7872678 11.1381966 -16.7872678 11.1381966 -17 13 C-18.32 13.33 -19.64 13.66 -21 14 C-17.63910684 6.87178008 -13.37698286 2.67630132 -6.1484375 -0.46875 C-3.71354368 -1.07083284 -2.34625782 -0.80685789 0 0 Z " fill="#636363" transform="translate(120,193)"/>
<path d="M0 0 C3.3 0 6.6 0 10 0 C9.01 0.33 8.02 0.66 7 1 C7 2.32 7 3.64 7 5 C7 5.33 7 5.66 7 6 C0.375 6.25 0.375 6.25 -3 4 C-2.505 3.525625 -2.01 3.05125 -1.5 2.5625 C0.11542197 1.24076302 0.11542197 1.24076302 0 0 Z " fill="#323230" transform="translate(78,8)"/>
<path d="M0 0 C-1.96099207 1.96099207 -3.41110058 2.80989009 -5.875 4 C-6.55304688 4.33 -7.23109375 4.66 -7.9296875 5 C-8.61289063 5.33 -9.29609375 5.66 -10 6 C-11.33425541 6.66481931 -12.66786355 7.33094492 -14 8 C-11.44932623 1.50737587 -6.60611271 -1.56460564 0 0 Z " fill="#212121" transform="translate(117,196)"/>
<path d="M0 0 C-0.33 4.62 -0.66 9.24 -1 14 C-1.33 14 -1.66 14 -2 14 C-2.33 11.36 -2.66 8.72 -3 6 C-4.32 6.33 -5.64 6.66 -7 7 C-6.6875 4.625 -6.6875 4.625 -6 2 C-3 0 -3 0 0 0 Z " fill="#4E4D4D" transform="translate(87,136)"/>
<path d="M0 0 C0.66 0 1.32 0 2 0 C2 0.99 2 1.98 2 3 C2.99 2.67 3.98 2.34 5 2 C5.66 2.33 6.32 2.66 7 3 C6.690625 3.7425 6.38125 4.485 6.0625 5.25 C5.1905075 7.50692176 4.52332993 9.6450153 4 12 C2.09681116 9.14521674 1.5380901 7.58058692 0.875 4.3125 C0.70742188 3.50425781 0.53984375 2.69601563 0.3671875 1.86328125 C0.24601562 1.24839844 0.12484375 0.63351563 0 0 Z " fill="#2F2E2C" transform="translate(52,46)"/>
<path d="M0 0 C4.62 0 9.24 0 14 0 C13 3 13 3 11 4 C10.34 4.66 9.68 5.32 9 6 C7.88625 5.071875 7.88625 5.071875 6.75 4.125 C3.92828702 1.80329196 3.92828702 1.80329196 0 0 Z " fill="#E4E4E2" transform="translate(58,0)"/>
<path d="M0 0 C3.85645121 -0.22036864 6.49223216 0.39644899 10 2 C5.06970164 4.8444029 0.49461223 5.45445618 -5 4 C-4.360625 3.71125 -3.72125 3.4225 -3.0625 3.125 C-0.84793921 2.17176549 -0.84793921 2.17176549 0 0 Z " fill="#121211" transform="translate(85,9)"/>
<path d="M0 0 C2 2 2 2 2.25 5 C2 8 2 8 0 10 C-0.99 9.67 -1.98 9.34 -3 9 C-2.44271087 5.65626525 -1.64826111 2.96687001 0 0 Z " fill="#0D0D0D" transform="translate(61,61)"/>
<path d="M0 0 C0.99 0 1.98 0 3 0 C3.33 2.31 3.66 4.62 4 7 C2.68 7 1.36 7 0 7 C-1 6 -1 6 -1.125 3.5 C-1 1 -1 1 0 0 Z " fill="#191919" transform="translate(67,178)"/>
<path d="M0 0 C1.2065625 0.0309375 1.2065625 0.0309375 2.4375 0.0625 C2.1075 1.3825 1.7775 2.7025 1.4375 4.0625 C0.7775 3.7325 0.1175 3.4025 -0.5625 3.0625 C-2.37365956 4.87365956 -1.94449448 7.67528227 -2.125 10.125 C-2.20878906 11.22972656 -2.29257812 12.33445312 -2.37890625 13.47265625 C-2.43949219 14.32730469 -2.50007813 15.18195312 -2.5625 16.0625 C-2.8925 16.0625 -3.2225 16.0625 -3.5625 16.0625 C-3.58935095 13.58326199 -3.60926547 11.1043116 -3.625 8.625 C-3.63756836 7.56442383 -3.63756836 7.56442383 -3.65039062 6.48242188 C-3.65903588 4.67556441 -3.61470011 2.86862397 -3.5625 1.0625 C-2.5625 0.0625 -2.5625 0.0625 0 0 Z " fill="#060605" transform="translate(59.5625,0.9375)"/>
<path d="M0 0 C0 0.99 0 1.98 0 3 C0.66 3.33 1.32 3.66 2 4 C1.01 4 0.02 4 -1 4 C-1 4.66 -1 5.32 -1 6 C-2.98 5.34 -4.96 4.68 -7 4 C-6.67 3.01 -6.34 2.02 -6 1 C-3.90006779 0.25486277 -2.22568901 0 0 0 Z " fill="#1F1F1F" transform="translate(148,187)"/>
<path d="M0 0 C0.33 0.99 0.66 1.98 1 3 C1.99 3.33 2.98 3.66 4 4 C3.34 5.32 2.68 6.64 2 8 C2.66 8.33 3.32 8.66 4 9 C3.01 10.485 3.01 10.485 2 12 C2 11.34 2 10.68 2 10 C1.01 9.67 0.02 9.34 -1 9 C-0.67 6.03 -0.34 3.06 0 0 Z " fill="#262625" transform="translate(95,146)"/>
<path d="M0 0 C0 2.31 0 4.62 0 7 C-1.98 7.99 -1.98 7.99 -4 9 C-4.1875 5.625 -4.1875 5.625 -4 2 C-1 0 -1 0 0 0 Z " fill="#151513" transform="translate(84,141)"/>
<path d="M0 0 C3.7952131 1.49097658 5.61042731 3.75700849 8 7 C7.34 7.66 6.68 8.32 6 9 C3.69 6.69 1.38 4.38 -1 2 C-0.67 1.34 -0.34 0.68 0 0 Z " fill="#222221" transform="translate(126,79)"/>
<path d="M0 0 C0.85298376 3.67387495 1.10789471 7.0447393 1.0625 10.8125 C1.05347656 11.78832031 1.04445313 12.76414062 1.03515625 13.76953125 C1.02355469 14.50558594 1.01195313 15.24164063 1 16 C0.67 16 0.34 16 0 16 C-0.33 12.7 -0.66 9.4 -1 6 C-2.65 5.67 -4.3 5.34 -6 5 C-1.125 0 -1.125 0 0 0 Z " fill="#C5C4C2" transform="translate(105,5)"/>
<path d="M0 0 C2.31 0.33 4.62 0.66 7 1 C6.67 1.99 6.34 2.98 6 4 C5.34 4 4.68 4 4 4 C4 4.66 4 5.32 4 6 C2.02 6 0.04 6 -2 6 C-2.33 5.34 -2.66 4.68 -3 4 C-1.68 3.34 -0.36 2.68 1 2 C0.67 1.34 0.34 0.68 0 0 Z " fill="#343432" transform="translate(90,9)"/>
<path d="M0 0 C0.66 0.33 1.32 0.66 2 1 C-0.64 3.97 -3.28 6.94 -6 10 C-6.66 8.68 -7.32 7.36 -8 6 C-7.34 6 -6.68 6 -6 6 C-6 5.34 -6 4.68 -6 4 C-4.36368108 2.95107762 -2.69514137 1.95093297 -1 1 C-0.67 0.67 -0.34 0.34 0 0 Z " fill="#AAAAAA" transform="translate(95,211)"/>
<path d="M0 0 C0.66 0.66 1.32 1.32 2 2 C0.71475739 2.86380259 -0.57842419 3.71580369 -1.875 4.5625 C-2.59429687 5.03816406 -3.31359375 5.51382813 -4.0546875 6.00390625 C-4.69664062 6.33261719 -5.33859375 6.66132813 -6 7 C-6.66 6.67 -7.32 6.34 -8 6 C-8 5.34 -8 4.68 -8 4 C-5.36107824 2.21694476 -3.02821137 1.00940379 0 0 Z " fill="#D4D4D4" transform="translate(144,178)"/>
<path d="M0 0 C0.33 0.99 0.66 1.98 1 3 C-0.4375 5.6875 -0.4375 5.6875 -2 8 C-3.32 6.35 -4.64 4.7 -6 3 C-2.25 0 -2.25 0 0 0 Z " fill="#181818" transform="translate(166,178)"/>
<path d="M0 0 C0.66 0 1.32 0 2 0 C3.26026798 2.52053595 2.91874445 3.8542098 2.5625 6.625 C2.40974609 7.85089844 2.40974609 7.85089844 2.25390625 9.1015625 C2.17011719 9.72804688 2.08632813 10.35453125 2 11 C0 9 0 9 -0.1953125 6.8359375 C-0.17210937 6.02382812 -0.14890625 5.21171875 -0.125 4.375 C-0.10695312 3.55773437 -0.08890625 2.74046875 -0.0703125 1.8984375 C-0.04710937 1.27195312 -0.02390625 0.64546875 0 0 Z " fill="#313131" transform="translate(59,117)"/>
<path d="M0 0 C3 1 3 1 5 4 C4.67 4.99 4.34 5.98 4 7 C1.5 5.6875 1.5 5.6875 -1 4 C-1 1 -1 1 0 0 Z " fill="#F4F4F2" transform="translate(114,70)"/>
<path d="M0 0 C0.886875 0.12375 1.77375 0.2475 2.6875 0.375 C-0.3125 2.375 -0.3125 2.375 -2.3125 3.375 C-1.6525 4.035 -0.9925 4.695 -0.3125 5.375 C-1.3125 6.375 -1.3125 6.375 -4.875 6.4375 C-6.009375 6.416875 -7.14375 6.39625 -8.3125 6.375 C-4.12788462 0.46730769 -4.12788462 0.46730769 0 0 Z " fill="#0F0F0E" transform="translate(78.3125,8.625)"/>
<path d="M0 0 C1.65 1.65 3.3 3.3 5 5 C4.0409375 5.37125 4.0409375 5.37125 3.0625 5.75 C0.50980961 6.96621634 0.50980961 6.96621634 0 11 C0 7.37 0 3.74 0 0 Z " fill="#E9E9E7" transform="translate(61,7)"/>
<path d="M0 0 C0.66 0 1.32 0 2 0 C1.58578031 4.83256305 -0.46413986 6.82679218 -4 10 C-4.66 9.67 -5.32 9.34 -6 9 C-5.071875 7.88625 -5.071875 7.88625 -4.125 6.75 C-2.39562719 4.51198812 -1.13893339 2.56260013 0 0 Z " fill="#B5B5B5" transform="translate(152,169)"/>
<path d="M0 0 C2 3 2 3 3 6 C1.68 6 0.36 6 -1 6 C-1.33 6.66 -1.66 7.32 -2 8 C-2.66 8 -3.32 8 -4 8 C-4 7.01 -4 6.02 -4 5 C-3.34 5 -2.68 5 -2 5 C-1.7834375 4.0409375 -1.7834375 4.0409375 -1.5625 3.0625 C-1 1 -1 1 0 0 Z " fill="#262523" transform="translate(70,148)"/>
<path d="M0 0 C0.33 0 0.66 0 1 0 C1 3.63 1 7.26 1 11 C0.34 10.67 -0.32 10.34 -1 10 C-1.33 11.65 -1.66 13.3 -2 15 C-2.33 15 -2.66 15 -3 15 C-3.125 11.625 -3.125 11.625 -3 8 C-2.34 7.34 -1.68 6.68 -1 6 C-0.60235737 4.01178687 -0.26224651 2.01055661 0 0 Z " fill="#0A0908" transform="translate(84,142)"/>
<path d="M0 0 C0.474375 0.66 0.94875 1.32 1.4375 2 C2.2109375 2.99 2.2109375 2.99 3 4 C3.33 4 3.66 4 4 4 C4 6.31 4 8.62 4 11 C3.34 11 2.68 11 2 11 C1.67 9.68 1.34 8.36 1 7 C0.34 7.66 -0.32 8.32 -1 9 C-0.67 6.03 -0.34 3.06 0 0 Z " fill="#0B0A09" transform="translate(100,124)"/>
<path d="M0 0 C0.99 0.33 1.98 0.66 3 1 C2.01 2.485 2.01 2.485 1 4 C0.34 4 -0.32 4 -1 4 C-2.62514468 5.45833358 -2.62514468 5.45833358 -4 7 C-4.33 5.68 -4.66 4.36 -5 3 C-2.6875 1.4375 -2.6875 1.4375 0 0 Z " fill="#F7F7F5" transform="translate(101,9)"/>
<path d="M0 0 C3.79588866 0.54226981 5.47211993 2.20127563 8 5 C7.67 5.66 7.34 6.32 7 7 C5.35 6.67 3.7 6.34 2 6 C2 5.01 2 4.02 2 3 C1.34 2.67 0.68 2.34 0 2 C0 1.34 0 0.68 0 0 Z " fill="#3A3A39" transform="translate(162,156)"/>
<path d="M0 0 C0.66 0.33 1.32 0.66 2 1 C2 4.63 2 8.26 2 12 C0.11656068 8.23312136 -0.22057835 6.97041037 0 3 C-0.66 3 -1.32 3 -2 3 C-2 2.34 -2 1.68 -2 1 C-1.34 0.67 -0.68 0.34 0 0 Z " fill="#585858" transform="translate(103,116)"/>
<path d="M0 0 C1.5625 1.8125 1.5625 1.8125 3 4 C2.67 4.99 2.34 5.98 2 7 C1.01 7.33 0.02 7.66 -1 8 C-1.66 6.35 -2.32 4.7 -3 3 C-2.01 2.01 -1.02 1.02 0 0 Z " fill="#232323" transform="translate(112,56)"/>
<path d="M0 0 C2.0625 0.9375 2.0625 0.9375 4 3 C4.05989746 6.07110598 3.58052245 8.99011728 3 12 C2.67 12 2.34 12 2 12 C1.67 9.69 1.34 7.38 1 5 C0.01 5.495 0.01 5.495 -1 6 C-1.042721 4.33388095 -1.04063832 2.66617115 -1 1 C-0.67 0.67 -0.34 0.34 0 0 Z " fill="#0E0D0C" transform="translate(53,31)"/>
<path d="M0 0 C0.66 0.66 1.32 1.32 2 2 C1.67 2.99 1.34 3.98 1 5 C-1.31 5 -3.62 5 -6 5 C-2.25 1.125 -2.25 1.125 0 0 Z " fill="#E9E9E9" transform="translate(89,220)"/>
<path d="M0 0 C0.33 0 0.66 0 1 0 C1 3.96 1 7.92 1 12 C1.66 12 2.32 12 3 12 C2.67 12.99 2.34 13.98 2 15 C1.67 14.67 1.34 14.34 1 14 C0.34 14.66 -0.32 15.32 -1 16 C-0.67 10.72 -0.34 5.44 0 0 Z " fill="#060606" transform="translate(109,34)"/>
<path d="M0 0 C0.66 0.33 1.32 0.66 2 1 C2 4.3 2 7.6 2 11 C1.34 10.67 0.68 10.34 0 10 C-0.89093449 6.35526801 -1.23666047 3.57257469 0 0 Z " fill="#535353" transform="translate(56,89)"/>
<path d="M0 0 C0.33 0 0.66 0 1 0 C1.33 2.97 1.66 5.94 2 9 C0.68 9 -0.64 9 -2 9 C-1.67 8.01 -1.34 7.02 -1 6 C-1 5.34 -1 4.68 -1 4 C-0.68521554 2.66216607 -0.35412344 1.32796291 0 0 Z " fill="#0F0F0F" transform="translate(110,49)"/>
<path d="M0 0 C1.5 1.375 1.5 1.375 3 3 C3 3.66 3 4.32 3 5 C0.5 6.625 0.5 6.625 -2 8 C-2 6.02 -2 4.04 -2 2 C-1.34 2 -0.68 2 0 2 C0 1.34 0 0.68 0 0 Z " fill="#1E1D1C" transform="translate(58,51)"/>
<path d="M0 0 C-0.66 1.32 -1.32 2.64 -2 4 C-2.66 4 -3.32 4 -4 4 C-4 3.34 -4 2.68 -4 2 C-4.66 2 -5.32 2 -6 2 C-6 1.34 -6 0.68 -6 0 C-3.50907189 -1.24546405 -2.58919267 -0.7767578 0 0 Z " fill="#ECECEB" transform="translate(165,159)"/>
<path d="M0 0 C0.66 0.33 1.32 0.66 2 1 C2 1.66 2 2.32 2 3 C2.66 3 3.32 3 4 3 C3.34 4.98 2.68 6.96 2 9 C1.67 9 1.34 9 1 9 C0.63877119 7.68942607 0.28619689 6.37646376 -0.0625 5.0625 C-0.35833984 3.96615234 -0.35833984 3.96615234 -0.66015625 2.84765625 C-0.77230469 2.23792969 -0.88445313 1.62820312 -1 1 C-0.67 0.67 -0.34 0.34 0 0 Z " fill="#353432" transform="translate(57,58)"/>
<path d="M0 0 C2.31 0.66 4.62 1.32 7 2 C5.68 2.99 4.36 3.98 3 5 C1.5 3.625 1.5 3.625 0 2 C0 1.34 0 0.68 0 0 Z " fill="#1B1B19" transform="translate(165,161)"/>
<path d="M0 0 C-0.33 1.32 -0.66 2.64 -1 4 C-2.32 4 -3.64 4 -5 4 C-5 3.01 -5 2.02 -5 1 C-3 0 -3 0 0 0 Z " fill="#333333" transform="translate(87,136)"/>
<path d="M0 0 C1.65 0 3.3 0 5 0 C5.33 1.98 5.66 3.96 6 6 C5.34 5.67 4.68 5.34 4 5 C4 4.34 4 3.68 4 3 C2.68 2.34 1.36 1.68 0 1 C0 0.67 0 0.34 0 0 Z " fill="#2E2E2E" transform="translate(147,106)"/>
</svg>
